<svg xmlns="http://www.w3.org/2000/svg" viewBox="0 0 144 144" role="img" aria-label="Linux">
  <path
    fill="#121820"
    stroke="#F8FAFC"
    stroke-linejoin="round"
    stroke-width="5"
    d="M72 12c-15.8 0-28.1 12.9-28.1 31.2 0 8.8-4.4 17.9-10 26.5-6.5 9.9-12.7 21.2-12.7 35 0 18.5 20.3 27.4 50.8 27.4s50.8-8.9 50.8-27.4c0-13.8-6.2-25.1-12.7-35-5.6-8.6-10-17.7-10-26.5C100.1 24.9 87.8 12 72 12z"
  />
  <path
    fill="#F8FAFC"
    d="M49.8 82.8c0-18.9 9.9-31.2 22.2-31.2s22.2 12.3 22.2 31.2c0 21.9-8.6 34.5-22.2 34.5S49.8 104.7 49.8 82.8z"
  />
  <path
    fill="#F8FAFC"
    d="M54.7 42.7c0-8.3 5.4-14.9 12.1-14.9 2.4 0 4.2 1.4 5.2 3.5 1-2.1 2.8-3.5 5.2-3.5 6.7 0 12.1 6.6 12.1 14.9s-5.4 14.9-12.1 14.9c-2.4 0-4.2-1.4-5.2-3.5-1 2.1-2.8 3.5-5.2 3.5-6.7 0-12.1-6.6-12.1-14.9z"
  />
  <path fill="#121820" d="M64.8 41.5a3.7 3.7 0 1 1-7.4 0 3.7 3.7 0 0 1 7.4 0zM86.6 41.5a3.7 3.7 0 1 1-7.4 0 3.7 3.7 0 0 1 7.4 0z" />
  <path fill="#F5B400" d="M61.4 61.5 72 55l10.6 6.5L72 68.4z" />
  <path
    fill="#F5B400"
    stroke="#121820"
    stroke-linejoin="round"
    stroke-width="2"
    d="M47 109.5c-10.1 1.7-19.4 6.4-24.7 12.5-2.5 2.9-.2 7.4 3.7 7.1l31.1-2.3c4.1-.3 6.2-5.1 3.5-8.1l-6-6.7a8.5 8.5 0 0 0-7.6-2.5zm50 0c10.1 1.7 19.4 6.4 24.7 12.5 2.5 2.9.2 7.4-3.7 7.1l-31.1-2.3c-4.1-.3-6.2-5.1-3.5-8.1l6-6.7a8.5 8.5 0 0 1 7.6-2.5z"
  />
</svg>
