<svg xmlns="http://www.w3.org/2000/svg" viewBox="0 0 144 144" role="img" aria-label="Quasar">
  <path
    fill="#F8FAFC"
    d="M82.4 71.7a10.4 10.4 0 0 1-20.8 0 10.4 10.4 0 1 1 20.8 0zM118.2 45c-2.2-3.9-5-7.5-8.2-10.7l-12 7c-3.7-3.2-8-5.7-12.6-7.3a49.4 49.4 0 0 0-9.7 13.9 59 59 0 0 1 40.1 14l7.6-4.4a57 57 0 0 0-5.2-12.5zM72 125.1c4.5 0 9-.6 13.4-1.7v-14a40 40 0 0 0 12.5-7.2 47.7 47.7 0 0 0-7.1-15.3 59 59 0 0 1-32.2 27.7v8.7c4.4 1.2 8.9 1.8 13.4 1.8zM25.8 45c-2.3 4-4 8.1-5.2 12.5l12 7a40 40 0 0 0 0 14.4c5.7 1.5 11.3 2 16.9 1.5a59 59 0 0 1-8-41.7L34 34.4c-3.2 3.2-6 6.7-8.2 10.6z"
  />
  <path
    fill="#00B4FF"
    d="M118.2 98.4c2.3-3.9 4-8 5.2-12.4l-12-7a40 40 0 0 0 0-14.5c-5.7-1.5-11.3-2-16.9-1.5a59 59 0 0 1 8 41.7l7.5 4.4c3.2-3.2 6-6.8 8.2-10.7zm-92.4 0c2.2 4 5 7.5 8.2 10.7l12-7a40 40 0 0 0 12.6 7.3c4-4.1 7.3-8.8 9.7-13.8a59 59 0 0 1-40-14L20.6 86c1.2 4.3 3 8.5 5.2 12.4zM72 18.4c-4.5 0-9 .5-13.4 1.7V34a40 40 0 0 0-12.5 7.2c1.5 5.7 4 10.8 7.1 15.4a59 59 0 0 1 32.2-27.7V20a53.3 53.3 0 0 0-13.4-1.8z"
  />
  <path
    fill="#00B4FF"
    d="M72 9.2a62.6 62.6 0 1 1-.1 125.2A62.6 62.6 0 0 1 72 9.2M72 0a71.7 71.7 0 1 0 0 143.5A71.7 71.7 0 0 0 72 0z"
  />
</svg>
